<mxfile host="www.draw.io" modified="2019-12-12T06:43:41.756Z" agent="Mozilla/5.0 (Windows NT 10.0; Win64; x64) AppleWebKit/537.36 (KHTML, like Gecko) Chrome/78.0.3904.108 Safari/537.36" etag="95XecpJYIwwnOKkcgb0O" version="12.3.9" type="github" pages="1">
  <diagram id="KnrCbgfHcHc2aH7qZ3OJ" name="Page-1">
    <mxGraphModel dx="1712" dy="433" grid="1" gridSize="10" guides="1" tooltips="1" connect="1" arrows="1" fold="1" page="1" pageScale="1" pageWidth="850" pageHeight="1100" math="0" shadow="0">
      <root>
        <mxCell id="0"/>
        <mxCell id="1" parent="0"/>
        <mxCell id="3mEz06m8wjwueaVQV1YL-37" style="edgeStyle=orthogonalEdgeStyle;rounded=0;orthogonalLoop=1;jettySize=auto;html=1;entryX=0.013;entryY=0.161;entryDx=0;entryDy=0;entryPerimeter=0;exitX=1.006;exitY=-0.154;exitDx=0;exitDy=0;exitPerimeter=0;startArrow=ERone;startFill=0;endArrow=ERone;endFill=0;" parent="1" source="3mEz06m8wjwueaVQV1YL-8" target="3mEz06m8wjwueaVQV1YL-26" edge="1">
          <mxGeometry relative="1" as="geometry"/>
        </mxCell>
        <mxCell id="3mEz06m8wjwueaVQV1YL-73" style="edgeStyle=orthogonalEdgeStyle;rounded=0;orthogonalLoop=1;jettySize=auto;html=1;startArrow=ERone;startFill=0;endArrow=ERoneToMany;endFill=0;entryX=0.998;entryY=0.115;entryDx=0;entryDy=0;entryPerimeter=0;" parent="1" source="3mEz06m8wjwueaVQV1YL-1" target="3mEz06m8wjwueaVQV1YL-49" edge="1">
          <mxGeometry relative="1" as="geometry"/>
        </mxCell>
        <mxCell id="3mEz06m8wjwueaVQV1YL-108" style="edgeStyle=orthogonalEdgeStyle;rounded=0;orthogonalLoop=1;jettySize=auto;html=1;entryX=0.813;entryY=0.005;entryDx=0;entryDy=0;entryPerimeter=0;startArrow=ERone;startFill=0;endArrow=ERmany;endFill=0;" parent="1" source="3mEz06m8wjwueaVQV1YL-1" target="3mEz06m8wjwueaVQV1YL-86" edge="1">
          <mxGeometry relative="1" as="geometry">
            <Array as="points">
              <mxPoint x="310" y="529"/>
              <mxPoint x="30" y="529"/>
            </Array>
          </mxGeometry>
        </mxCell>
        <mxCell id="3mEz06m8wjwueaVQV1YL-1" value="User" style="swimlane;fontStyle=0;childLayout=stackLayout;horizontal=1;startSize=26;fillColor=#e0e0e0;horizontalStack=0;resizeParent=1;resizeParentMax=0;resizeLast=0;collapsible=1;marginBottom=0;swimlaneFillColor=#ffffff;align=center;fontSize=14;" parent="1" vertex="1">
          <mxGeometry x="230" y="120" width="160" height="274" as="geometry"/>
        </mxCell>
        <mxCell id="3mEz06m8wjwueaVQV1YL-2" value="GUID" style="shape=partialRectangle;top=0;left=0;right=0;bottom=1;align=left;verticalAlign=middle;fillColor=none;spacingLeft=34;spacingRight=4;overflow=hidden;rotatable=0;points=[[0,0.5],[1,0.5]];portConstraint=eastwest;dropTarget=0;fontStyle=5;fontSize=12;" parent="3mEz06m8wjwueaVQV1YL-1" vertex="1">
          <mxGeometry y="26" width="160" height="30" as="geometry"/>
        </mxCell>
        <mxCell id="3mEz06m8wjwueaVQV1YL-3" value="PK" style="shape=partialRectangle;top=0;left=0;bottom=0;fillColor=none;align=left;verticalAlign=middle;spacingLeft=4;spacingRight=4;overflow=hidden;rotatable=0;points=[];portConstraint=eastwest;part=1;fontSize=12;" parent="3mEz06m8wjwueaVQV1YL-2" vertex="1" connectable="0">
          <mxGeometry width="30" height="30" as="geometry"/>
        </mxCell>
        <mxCell id="3mEz06m8wjwueaVQV1YL-4" value="First_name" style="shape=partialRectangle;top=0;left=0;right=0;bottom=0;align=left;verticalAlign=top;fillColor=none;spacingLeft=34;spacingRight=4;overflow=hidden;rotatable=0;points=[[0,0.5],[1,0.5]];portConstraint=eastwest;dropTarget=0;fontSize=12;" parent="3mEz06m8wjwueaVQV1YL-1" vertex="1">
          <mxGeometry y="56" width="160" height="26" as="geometry"/>
        </mxCell>
        <mxCell id="3mEz06m8wjwueaVQV1YL-5" value="" style="shape=partialRectangle;top=0;left=0;bottom=0;fillColor=none;align=left;verticalAlign=top;spacingLeft=4;spacingRight=4;overflow=hidden;rotatable=0;points=[];portConstraint=eastwest;part=1;fontSize=12;" parent="3mEz06m8wjwueaVQV1YL-4" vertex="1" connectable="0">
          <mxGeometry width="30" height="26" as="geometry"/>
        </mxCell>
        <mxCell id="3mEz06m8wjwueaVQV1YL-6" value="Middle_name" style="shape=partialRectangle;top=0;left=0;right=0;bottom=0;align=left;verticalAlign=top;fillColor=none;spacingLeft=34;spacingRight=4;overflow=hidden;rotatable=0;points=[[0,0.5],[1,0.5]];portConstraint=eastwest;dropTarget=0;fontSize=12;" parent="3mEz06m8wjwueaVQV1YL-1" vertex="1">
          <mxGeometry y="82" width="160" height="26" as="geometry"/>
        </mxCell>
        <mxCell id="3mEz06m8wjwueaVQV1YL-7" value="" style="shape=partialRectangle;top=0;left=0;bottom=0;fillColor=none;align=left;verticalAlign=top;spacingLeft=4;spacingRight=4;overflow=hidden;rotatable=0;points=[];portConstraint=eastwest;part=1;fontSize=12;" parent="3mEz06m8wjwueaVQV1YL-6" vertex="1" connectable="0">
          <mxGeometry width="30" height="26" as="geometry"/>
        </mxCell>
        <mxCell id="3mEz06m8wjwueaVQV1YL-8" value="Last_name" style="shape=partialRectangle;top=0;left=0;right=0;bottom=0;align=left;verticalAlign=top;fillColor=none;spacingLeft=34;spacingRight=4;overflow=hidden;rotatable=0;points=[[0,0.5],[1,0.5]];portConstraint=eastwest;dropTarget=0;fontSize=12;" parent="3mEz06m8wjwueaVQV1YL-1" vertex="1">
          <mxGeometry y="108" width="160" height="26" as="geometry"/>
        </mxCell>
        <mxCell id="3mEz06m8wjwueaVQV1YL-9" value="" style="shape=partialRectangle;top=0;left=0;bottom=0;fillColor=none;align=left;verticalAlign=top;spacingLeft=4;spacingRight=4;overflow=hidden;rotatable=0;points=[];portConstraint=eastwest;part=1;fontSize=12;" parent="3mEz06m8wjwueaVQV1YL-8" vertex="1" connectable="0">
          <mxGeometry width="30" height="26" as="geometry"/>
        </mxCell>
        <mxCell id="3mEz06m8wjwueaVQV1YL-10" value="" style="shape=partialRectangle;top=0;left=0;right=0;bottom=0;align=left;verticalAlign=top;fillColor=none;spacingLeft=34;spacingRight=4;overflow=hidden;rotatable=0;points=[[0,0.5],[1,0.5]];portConstraint=eastwest;dropTarget=0;fontSize=12;" parent="3mEz06m8wjwueaVQV1YL-1" vertex="1">
          <mxGeometry y="134" width="160" height="10" as="geometry"/>
        </mxCell>
        <mxCell id="3mEz06m8wjwueaVQV1YL-11" value="" style="shape=partialRectangle;top=0;left=0;bottom=0;fillColor=none;align=left;verticalAlign=top;spacingLeft=4;spacingRight=4;overflow=hidden;rotatable=0;points=[];portConstraint=eastwest;part=1;fontSize=12;" parent="3mEz06m8wjwueaVQV1YL-10" vertex="1" connectable="0">
          <mxGeometry width="30" height="10" as="geometry"/>
        </mxCell>
        <mxCell id="3mEz06m8wjwueaVQV1YL-16" value="DOB" style="shape=partialRectangle;top=0;left=0;right=0;bottom=0;align=left;verticalAlign=top;fillColor=none;spacingLeft=34;spacingRight=4;overflow=hidden;rotatable=0;points=[[0,0.5],[1,0.5]];portConstraint=eastwest;dropTarget=0;fontSize=12;" parent="3mEz06m8wjwueaVQV1YL-1" vertex="1">
          <mxGeometry y="144" width="160" height="26" as="geometry"/>
        </mxCell>
        <mxCell id="3mEz06m8wjwueaVQV1YL-17" value="" style="shape=partialRectangle;top=0;left=0;bottom=0;fillColor=none;align=left;verticalAlign=top;spacingLeft=4;spacingRight=4;overflow=hidden;rotatable=0;points=[];portConstraint=eastwest;part=1;fontSize=12;" parent="3mEz06m8wjwueaVQV1YL-16" vertex="1" connectable="0">
          <mxGeometry width="30" height="26" as="geometry"/>
        </mxCell>
        <mxCell id="3mEz06m8wjwueaVQV1YL-18" value="Email" style="shape=partialRectangle;top=0;left=0;right=0;bottom=0;align=left;verticalAlign=top;fillColor=none;spacingLeft=34;spacingRight=4;overflow=hidden;rotatable=0;points=[[0,0.5],[1,0.5]];portConstraint=eastwest;dropTarget=0;fontSize=12;" parent="3mEz06m8wjwueaVQV1YL-1" vertex="1">
          <mxGeometry y="170" width="160" height="26" as="geometry"/>
        </mxCell>
        <mxCell id="3mEz06m8wjwueaVQV1YL-19" value="" style="shape=partialRectangle;top=0;left=0;bottom=0;fillColor=none;align=left;verticalAlign=top;spacingLeft=4;spacingRight=4;overflow=hidden;rotatable=0;points=[];portConstraint=eastwest;part=1;fontSize=12;" parent="3mEz06m8wjwueaVQV1YL-18" vertex="1" connectable="0">
          <mxGeometry width="30" height="26" as="geometry"/>
        </mxCell>
        <mxCell id="3mEz06m8wjwueaVQV1YL-20" value="Password" style="shape=partialRectangle;top=0;left=0;right=0;bottom=0;align=left;verticalAlign=top;fillColor=none;spacingLeft=34;spacingRight=4;overflow=hidden;rotatable=0;points=[[0,0.5],[1,0.5]];portConstraint=eastwest;dropTarget=0;fontSize=12;" parent="3mEz06m8wjwueaVQV1YL-1" vertex="1">
          <mxGeometry y="196" width="160" height="26" as="geometry"/>
        </mxCell>
        <mxCell id="3mEz06m8wjwueaVQV1YL-21" value="" style="shape=partialRectangle;top=0;left=0;bottom=0;fillColor=none;align=left;verticalAlign=top;spacingLeft=4;spacingRight=4;overflow=hidden;rotatable=0;points=[];portConstraint=eastwest;part=1;fontSize=12;" parent="3mEz06m8wjwueaVQV1YL-20" vertex="1" connectable="0">
          <mxGeometry width="30" height="26" as="geometry"/>
        </mxCell>
        <mxCell id="3mEz06m8wjwueaVQV1YL-22" value="Address" style="shape=partialRectangle;top=0;left=0;right=0;bottom=0;align=left;verticalAlign=top;fillColor=none;spacingLeft=34;spacingRight=4;overflow=hidden;rotatable=0;points=[[0,0.5],[1,0.5]];portConstraint=eastwest;dropTarget=0;fontSize=12;" parent="3mEz06m8wjwueaVQV1YL-1" vertex="1">
          <mxGeometry y="222" width="160" height="26" as="geometry"/>
        </mxCell>
        <mxCell id="3mEz06m8wjwueaVQV1YL-23" value="" style="shape=partialRectangle;top=0;left=0;bottom=0;fillColor=none;align=left;verticalAlign=top;spacingLeft=4;spacingRight=4;overflow=hidden;rotatable=0;points=[];portConstraint=eastwest;part=1;fontSize=12;" parent="3mEz06m8wjwueaVQV1YL-22" vertex="1" connectable="0">
          <mxGeometry width="30" height="26" as="geometry"/>
        </mxCell>
        <mxCell id="3mEz06m8wjwueaVQV1YL-24" value="Account_Type_ID" style="shape=partialRectangle;top=0;left=0;right=0;bottom=0;align=left;verticalAlign=top;fillColor=none;spacingLeft=34;spacingRight=4;overflow=hidden;rotatable=0;points=[[0,0.5],[1,0.5]];portConstraint=eastwest;dropTarget=0;fontSize=12;" parent="3mEz06m8wjwueaVQV1YL-1" vertex="1">
          <mxGeometry y="248" width="160" height="26" as="geometry"/>
        </mxCell>
        <mxCell id="3mEz06m8wjwueaVQV1YL-25" value="FK" style="shape=partialRectangle;top=0;left=0;bottom=0;fillColor=none;align=left;verticalAlign=top;spacingLeft=4;spacingRight=4;overflow=hidden;rotatable=0;points=[];portConstraint=eastwest;part=1;fontSize=12;" parent="3mEz06m8wjwueaVQV1YL-24" vertex="1" connectable="0">
          <mxGeometry width="30" height="26" as="geometry"/>
        </mxCell>
        <mxCell id="3mEz06m8wjwueaVQV1YL-26" value="User_Account_Type" style="swimlane;fontStyle=0;childLayout=stackLayout;horizontal=1;startSize=26;fillColor=#e0e0e0;horizontalStack=0;resizeParent=1;resizeParentMax=0;resizeLast=0;collapsible=1;marginBottom=0;swimlaneFillColor=#ffffff;align=center;fontSize=14;" parent="1" vertex="1">
          <mxGeometry x="500" y="205" width="160" height="118" as="geometry"/>
        </mxCell>
        <mxCell id="3mEz06m8wjwueaVQV1YL-27" value="GUID" style="shape=partialRectangle;top=0;left=0;right=0;bottom=1;align=left;verticalAlign=middle;fillColor=none;spacingLeft=34;spacingRight=4;overflow=hidden;rotatable=0;points=[[0,0.5],[1,0.5]];portConstraint=eastwest;dropTarget=0;fontStyle=5;fontSize=12;" parent="3mEz06m8wjwueaVQV1YL-26" vertex="1">
          <mxGeometry y="26" width="160" height="30" as="geometry"/>
        </mxCell>
        <mxCell id="3mEz06m8wjwueaVQV1YL-28" value="PK" style="shape=partialRectangle;top=0;left=0;bottom=0;fillColor=none;align=left;verticalAlign=middle;spacingLeft=4;spacingRight=4;overflow=hidden;rotatable=0;points=[];portConstraint=eastwest;part=1;fontSize=12;" parent="3mEz06m8wjwueaVQV1YL-27" vertex="1" connectable="0">
          <mxGeometry width="30" height="30" as="geometry"/>
        </mxCell>
        <mxCell id="3mEz06m8wjwueaVQV1YL-29" value="Type" style="shape=partialRectangle;top=0;left=0;right=0;bottom=0;align=left;verticalAlign=top;fillColor=none;spacingLeft=34;spacingRight=4;overflow=hidden;rotatable=0;points=[[0,0.5],[1,0.5]];portConstraint=eastwest;dropTarget=0;fontSize=12;" parent="3mEz06m8wjwueaVQV1YL-26" vertex="1">
          <mxGeometry y="56" width="160" height="26" as="geometry"/>
        </mxCell>
        <mxCell id="3mEz06m8wjwueaVQV1YL-30" value="" style="shape=partialRectangle;top=0;left=0;bottom=0;fillColor=none;align=left;verticalAlign=top;spacingLeft=4;spacingRight=4;overflow=hidden;rotatable=0;points=[];portConstraint=eastwest;part=1;fontSize=12;" parent="3mEz06m8wjwueaVQV1YL-29" vertex="1" connectable="0">
          <mxGeometry width="30" height="26" as="geometry"/>
        </mxCell>
        <mxCell id="3mEz06m8wjwueaVQV1YL-31" value="ID" style="shape=partialRectangle;top=0;left=0;right=0;bottom=0;align=left;verticalAlign=top;fillColor=none;spacingLeft=34;spacingRight=4;overflow=hidden;rotatable=0;points=[[0,0.5],[1,0.5]];portConstraint=eastwest;dropTarget=0;fontSize=12;" parent="3mEz06m8wjwueaVQV1YL-26" vertex="1">
          <mxGeometry y="82" width="160" height="26" as="geometry"/>
        </mxCell>
        <mxCell id="3mEz06m8wjwueaVQV1YL-32" value="" style="shape=partialRectangle;top=0;left=0;bottom=0;fillColor=none;align=left;verticalAlign=top;spacingLeft=4;spacingRight=4;overflow=hidden;rotatable=0;points=[];portConstraint=eastwest;part=1;fontSize=12;" parent="3mEz06m8wjwueaVQV1YL-31" vertex="1" connectable="0">
          <mxGeometry width="30" height="26" as="geometry"/>
        </mxCell>
        <mxCell id="3mEz06m8wjwueaVQV1YL-35" value="" style="shape=partialRectangle;top=0;left=0;right=0;bottom=0;align=left;verticalAlign=top;fillColor=none;spacingLeft=34;spacingRight=4;overflow=hidden;rotatable=0;points=[[0,0.5],[1,0.5]];portConstraint=eastwest;dropTarget=0;fontSize=12;" parent="3mEz06m8wjwueaVQV1YL-26" vertex="1">
          <mxGeometry y="108" width="160" height="10" as="geometry"/>
        </mxCell>
        <mxCell id="3mEz06m8wjwueaVQV1YL-36" value="" style="shape=partialRectangle;top=0;left=0;bottom=0;fillColor=none;align=left;verticalAlign=top;spacingLeft=4;spacingRight=4;overflow=hidden;rotatable=0;points=[];portConstraint=eastwest;part=1;fontSize=12;" parent="3mEz06m8wjwueaVQV1YL-35" vertex="1" connectable="0">
          <mxGeometry width="30" height="10" as="geometry"/>
        </mxCell>
        <mxCell id="3mEz06m8wjwueaVQV1YL-85" style="edgeStyle=orthogonalEdgeStyle;rounded=0;orthogonalLoop=1;jettySize=auto;html=1;startArrow=ERone;startFill=0;endArrow=ERone;endFill=0;" parent="1" source="3mEz06m8wjwueaVQV1YL-38" edge="1">
          <mxGeometry relative="1" as="geometry">
            <mxPoint x="-229" y="304" as="targetPoint"/>
          </mxGeometry>
        </mxCell>
        <mxCell id="3mEz06m8wjwueaVQV1YL-107" style="edgeStyle=orthogonalEdgeStyle;rounded=0;orthogonalLoop=1;jettySize=auto;html=1;entryX=0.5;entryY=0;entryDx=0;entryDy=0;startArrow=ERone;startFill=0;endArrow=ERmany;endFill=0;" parent="1" source="3mEz06m8wjwueaVQV1YL-38" target="3mEz06m8wjwueaVQV1YL-86" edge="1">
          <mxGeometry relative="1" as="geometry"/>
        </mxCell>
        <mxCell id="3mEz06m8wjwueaVQV1YL-147" style="edgeStyle=orthogonalEdgeStyle;rounded=0;orthogonalLoop=1;jettySize=auto;html=1;entryX=0.415;entryY=-0.001;entryDx=0;entryDy=0;entryPerimeter=0;startArrow=ERone;startFill=0;endArrow=ERmany;endFill=0;" parent="1" source="3mEz06m8wjwueaVQV1YL-38" target="3mEz06m8wjwueaVQV1YL-125" edge="1">
          <mxGeometry relative="1" as="geometry">
            <Array as="points">
              <mxPoint x="-160" y="370"/>
              <mxPoint x="-160" y="570"/>
              <mxPoint x="-324" y="570"/>
            </Array>
          </mxGeometry>
        </mxCell>
        <mxCell id="3mEz06m8wjwueaVQV1YL-161" style="edgeStyle=orthogonalEdgeStyle;rounded=0;orthogonalLoop=1;jettySize=auto;html=1;entryX=1.018;entryY=0.088;entryDx=0;entryDy=0;entryPerimeter=0;startArrow=ERone;startFill=0;endArrow=ERoneToMany;endFill=0;" parent="1" source="3mEz06m8wjwueaVQV1YL-38" target="3mEz06m8wjwueaVQV1YL-150" edge="1">
          <mxGeometry relative="1" as="geometry">
            <Array as="points">
              <mxPoint x="-150" y="133"/>
              <mxPoint x="-150" y="133"/>
            </Array>
          </mxGeometry>
        </mxCell>
        <mxCell id="3mEz06m8wjwueaVQV1YL-38" value="HousingUnit" style="swimlane;fontStyle=0;childLayout=stackLayout;horizontal=1;startSize=26;fillColor=#e0e0e0;horizontalStack=0;resizeParent=1;resizeParentMax=0;resizeLast=0;collapsible=1;marginBottom=0;swimlaneFillColor=#ffffff;align=center;fontSize=14;" parent="1" vertex="1">
          <mxGeometry x="-100" y="120" width="160" height="368" as="geometry"/>
        </mxCell>
        <mxCell id="3mEz06m8wjwueaVQV1YL-39" value="GUID" style="shape=partialRectangle;top=0;left=0;right=0;bottom=1;align=left;verticalAlign=middle;fillColor=none;spacingLeft=34;spacingRight=4;overflow=hidden;rotatable=0;points=[[0,0.5],[1,0.5]];portConstraint=eastwest;dropTarget=0;fontStyle=5;fontSize=12;" parent="3mEz06m8wjwueaVQV1YL-38" vertex="1">
          <mxGeometry y="26" width="160" height="30" as="geometry"/>
        </mxCell>
        <mxCell id="3mEz06m8wjwueaVQV1YL-40" value="PK" style="shape=partialRectangle;top=0;left=0;bottom=0;fillColor=none;align=left;verticalAlign=middle;spacingLeft=4;spacingRight=4;overflow=hidden;rotatable=0;points=[];portConstraint=eastwest;part=1;fontSize=12;" parent="3mEz06m8wjwueaVQV1YL-39" vertex="1" connectable="0">
          <mxGeometry width="30" height="30" as="geometry"/>
        </mxCell>
        <mxCell id="3mEz06m8wjwueaVQV1YL-41" value="Address" style="shape=partialRectangle;top=0;left=0;right=0;bottom=0;align=left;verticalAlign=top;fillColor=none;spacingLeft=34;spacingRight=4;overflow=hidden;rotatable=0;points=[[0,0.5],[1,0.5]];portConstraint=eastwest;dropTarget=0;fontSize=12;" parent="3mEz06m8wjwueaVQV1YL-38" vertex="1">
          <mxGeometry y="56" width="160" height="26" as="geometry"/>
        </mxCell>
        <mxCell id="3mEz06m8wjwueaVQV1YL-42" value="" style="shape=partialRectangle;top=0;left=0;bottom=0;fillColor=none;align=left;verticalAlign=top;spacingLeft=4;spacingRight=4;overflow=hidden;rotatable=0;points=[];portConstraint=eastwest;part=1;fontSize=12;" parent="3mEz06m8wjwueaVQV1YL-41" vertex="1" connectable="0">
          <mxGeometry width="30" height="26" as="geometry"/>
        </mxCell>
        <mxCell id="3mEz06m8wjwueaVQV1YL-43" value="City" style="shape=partialRectangle;top=0;left=0;right=0;bottom=0;align=left;verticalAlign=top;fillColor=none;spacingLeft=34;spacingRight=4;overflow=hidden;rotatable=0;points=[[0,0.5],[1,0.5]];portConstraint=eastwest;dropTarget=0;fontSize=12;" parent="3mEz06m8wjwueaVQV1YL-38" vertex="1">
          <mxGeometry y="82" width="160" height="26" as="geometry"/>
        </mxCell>
        <mxCell id="3mEz06m8wjwueaVQV1YL-44" value="" style="shape=partialRectangle;top=0;left=0;bottom=0;fillColor=none;align=left;verticalAlign=top;spacingLeft=4;spacingRight=4;overflow=hidden;rotatable=0;points=[];portConstraint=eastwest;part=1;fontSize=12;" parent="3mEz06m8wjwueaVQV1YL-43" vertex="1" connectable="0">
          <mxGeometry width="30" height="26" as="geometry"/>
        </mxCell>
        <mxCell id="3mEz06m8wjwueaVQV1YL-45" value="State" style="shape=partialRectangle;top=0;left=0;right=0;bottom=0;align=left;verticalAlign=top;fillColor=none;spacingLeft=34;spacingRight=4;overflow=hidden;rotatable=0;points=[[0,0.5],[1,0.5]];portConstraint=eastwest;dropTarget=0;fontSize=12;" parent="3mEz06m8wjwueaVQV1YL-38" vertex="1">
          <mxGeometry y="108" width="160" height="26" as="geometry"/>
        </mxCell>
        <mxCell id="3mEz06m8wjwueaVQV1YL-46" value="" style="shape=partialRectangle;top=0;left=0;bottom=0;fillColor=none;align=left;verticalAlign=top;spacingLeft=4;spacingRight=4;overflow=hidden;rotatable=0;points=[];portConstraint=eastwest;part=1;fontSize=12;" parent="3mEz06m8wjwueaVQV1YL-45" vertex="1" connectable="0">
          <mxGeometry width="30" height="26" as="geometry"/>
        </mxCell>
        <mxCell id="3mEz06m8wjwueaVQV1YL-49" value="Zip" style="shape=partialRectangle;top=0;left=0;right=0;bottom=0;align=left;verticalAlign=top;fillColor=none;spacingLeft=34;spacingRight=4;overflow=hidden;rotatable=0;points=[[0,0.5],[1,0.5]];portConstraint=eastwest;dropTarget=0;fontSize=12;" parent="3mEz06m8wjwueaVQV1YL-38" vertex="1">
          <mxGeometry y="134" width="160" height="26" as="geometry"/>
        </mxCell>
        <mxCell id="3mEz06m8wjwueaVQV1YL-50" value="" style="shape=partialRectangle;top=0;left=0;bottom=0;fillColor=none;align=left;verticalAlign=top;spacingLeft=4;spacingRight=4;overflow=hidden;rotatable=0;points=[];portConstraint=eastwest;part=1;fontSize=12;" parent="3mEz06m8wjwueaVQV1YL-49" vertex="1" connectable="0">
          <mxGeometry width="30" height="26" as="geometry"/>
        </mxCell>
        <mxCell id="3mEz06m8wjwueaVQV1YL-51" value="SqFt" style="shape=partialRectangle;top=0;left=0;right=0;bottom=0;align=left;verticalAlign=top;fillColor=none;spacingLeft=34;spacingRight=4;overflow=hidden;rotatable=0;points=[[0,0.5],[1,0.5]];portConstraint=eastwest;dropTarget=0;fontSize=12;" parent="3mEz06m8wjwueaVQV1YL-38" vertex="1">
          <mxGeometry y="160" width="160" height="26" as="geometry"/>
        </mxCell>
        <mxCell id="3mEz06m8wjwueaVQV1YL-52" value="" style="shape=partialRectangle;top=0;left=0;bottom=0;fillColor=none;align=left;verticalAlign=top;spacingLeft=4;spacingRight=4;overflow=hidden;rotatable=0;points=[];portConstraint=eastwest;part=1;fontSize=12;" parent="3mEz06m8wjwueaVQV1YL-51" vertex="1" connectable="0">
          <mxGeometry width="30" height="26" as="geometry"/>
        </mxCell>
        <mxCell id="3mEz06m8wjwueaVQV1YL-53" value="Beds" style="shape=partialRectangle;top=0;left=0;right=0;bottom=0;align=left;verticalAlign=top;fillColor=none;spacingLeft=34;spacingRight=4;overflow=hidden;rotatable=0;points=[[0,0.5],[1,0.5]];portConstraint=eastwest;dropTarget=0;fontSize=12;" parent="3mEz06m8wjwueaVQV1YL-38" vertex="1">
          <mxGeometry y="186" width="160" height="26" as="geometry"/>
        </mxCell>
        <mxCell id="3mEz06m8wjwueaVQV1YL-54" value="" style="shape=partialRectangle;top=0;left=0;bottom=0;fillColor=none;align=left;verticalAlign=top;spacingLeft=4;spacingRight=4;overflow=hidden;rotatable=0;points=[];portConstraint=eastwest;part=1;fontSize=12;" parent="3mEz06m8wjwueaVQV1YL-53" vertex="1" connectable="0">
          <mxGeometry width="30" height="26" as="geometry"/>
        </mxCell>
        <mxCell id="3mEz06m8wjwueaVQV1YL-55" value="Baths" style="shape=partialRectangle;top=0;left=0;right=0;bottom=0;align=left;verticalAlign=top;fillColor=none;spacingLeft=34;spacingRight=4;overflow=hidden;rotatable=0;points=[[0,0.5],[1,0.5]];portConstraint=eastwest;dropTarget=0;fontSize=12;" parent="3mEz06m8wjwueaVQV1YL-38" vertex="1">
          <mxGeometry y="212" width="160" height="26" as="geometry"/>
        </mxCell>
        <mxCell id="3mEz06m8wjwueaVQV1YL-56" value="" style="shape=partialRectangle;top=0;left=0;bottom=0;fillColor=none;align=left;verticalAlign=top;spacingLeft=4;spacingRight=4;overflow=hidden;rotatable=0;points=[];portConstraint=eastwest;part=1;fontSize=12;" parent="3mEz06m8wjwueaVQV1YL-55" vertex="1" connectable="0">
          <mxGeometry width="30" height="26" as="geometry"/>
        </mxCell>
        <mxCell id="3mEz06m8wjwueaVQV1YL-57" value="Rooms" style="shape=partialRectangle;top=0;left=0;right=0;bottom=0;align=left;verticalAlign=top;fillColor=none;spacingLeft=34;spacingRight=4;overflow=hidden;rotatable=0;points=[[0,0.5],[1,0.5]];portConstraint=eastwest;dropTarget=0;fontSize=12;" parent="3mEz06m8wjwueaVQV1YL-38" vertex="1">
          <mxGeometry y="238" width="160" height="26" as="geometry"/>
        </mxCell>
        <mxCell id="3mEz06m8wjwueaVQV1YL-58" value="" style="shape=partialRectangle;top=0;left=0;bottom=0;fillColor=none;align=left;verticalAlign=top;spacingLeft=4;spacingRight=4;overflow=hidden;rotatable=0;points=[];portConstraint=eastwest;part=1;fontSize=12;" parent="3mEz06m8wjwueaVQV1YL-57" vertex="1" connectable="0">
          <mxGeometry width="30" height="26" as="geometry"/>
        </mxCell>
        <mxCell id="3mEz06m8wjwueaVQV1YL-59" value="Unit_Type_ID" style="shape=partialRectangle;top=0;left=0;right=0;bottom=0;align=left;verticalAlign=top;fillColor=none;spacingLeft=34;spacingRight=4;overflow=hidden;rotatable=0;points=[[0,0.5],[1,0.5]];portConstraint=eastwest;dropTarget=0;fontSize=12;" parent="3mEz06m8wjwueaVQV1YL-38" vertex="1">
          <mxGeometry y="264" width="160" height="26" as="geometry"/>
        </mxCell>
        <mxCell id="3mEz06m8wjwueaVQV1YL-60" value="FK" style="shape=partialRectangle;top=0;left=0;bottom=0;fillColor=none;align=left;verticalAlign=top;spacingLeft=4;spacingRight=4;overflow=hidden;rotatable=0;points=[];portConstraint=eastwest;part=1;fontSize=12;" parent="3mEz06m8wjwueaVQV1YL-59" vertex="1" connectable="0">
          <mxGeometry width="30" height="26" as="geometry"/>
        </mxCell>
        <mxCell id="3mEz06m8wjwueaVQV1YL-67" value="User_GUID" style="shape=partialRectangle;top=0;left=0;right=0;bottom=0;align=left;verticalAlign=top;fillColor=none;spacingLeft=34;spacingRight=4;overflow=hidden;rotatable=0;points=[[0,0.5],[1,0.5]];portConstraint=eastwest;dropTarget=0;fontSize=12;" parent="3mEz06m8wjwueaVQV1YL-38" vertex="1">
          <mxGeometry y="290" width="160" height="26" as="geometry"/>
        </mxCell>
        <mxCell id="3mEz06m8wjwueaVQV1YL-68" value="FK" style="shape=partialRectangle;top=0;left=0;bottom=0;fillColor=none;align=left;verticalAlign=top;spacingLeft=4;spacingRight=4;overflow=hidden;rotatable=0;points=[];portConstraint=eastwest;part=1;fontSize=12;" parent="3mEz06m8wjwueaVQV1YL-67" vertex="1" connectable="0">
          <mxGeometry width="30" height="26" as="geometry"/>
        </mxCell>
        <mxCell id="3mEz06m8wjwueaVQV1YL-69" value="Available_Date" style="shape=partialRectangle;top=0;left=0;right=0;bottom=0;align=left;verticalAlign=top;fillColor=none;spacingLeft=34;spacingRight=4;overflow=hidden;rotatable=0;points=[[0,0.5],[1,0.5]];portConstraint=eastwest;dropTarget=0;fontSize=12;" parent="3mEz06m8wjwueaVQV1YL-38" vertex="1">
          <mxGeometry y="316" width="160" height="26" as="geometry"/>
        </mxCell>
        <mxCell id="3mEz06m8wjwueaVQV1YL-70" value="" style="shape=partialRectangle;top=0;left=0;bottom=0;fillColor=none;align=left;verticalAlign=top;spacingLeft=4;spacingRight=4;overflow=hidden;rotatable=0;points=[];portConstraint=eastwest;part=1;fontSize=12;" parent="3mEz06m8wjwueaVQV1YL-69" vertex="1" connectable="0">
          <mxGeometry width="30" height="26" as="geometry"/>
        </mxCell>
        <mxCell id="3mEz06m8wjwueaVQV1YL-71" value="Rent" style="shape=partialRectangle;top=0;left=0;right=0;bottom=0;align=left;verticalAlign=top;fillColor=none;spacingLeft=34;spacingRight=4;overflow=hidden;rotatable=0;points=[[0,0.5],[1,0.5]];portConstraint=eastwest;dropTarget=0;fontSize=12;" parent="3mEz06m8wjwueaVQV1YL-38" vertex="1">
          <mxGeometry y="342" width="160" height="26" as="geometry"/>
        </mxCell>
        <mxCell id="3mEz06m8wjwueaVQV1YL-72" value="" style="shape=partialRectangle;top=0;left=0;bottom=0;fillColor=none;align=left;verticalAlign=top;spacingLeft=4;spacingRight=4;overflow=hidden;rotatable=0;points=[];portConstraint=eastwest;part=1;fontSize=12;" parent="3mEz06m8wjwueaVQV1YL-71" vertex="1" connectable="0">
          <mxGeometry width="30" height="26" as="geometry"/>
        </mxCell>
        <mxCell id="3mEz06m8wjwueaVQV1YL-74" value="Unit_Type" style="swimlane;fontStyle=0;childLayout=stackLayout;horizontal=1;startSize=26;fillColor=#e0e0e0;horizontalStack=0;resizeParent=1;resizeParentMax=0;resizeLast=0;collapsible=1;marginBottom=0;swimlaneFillColor=#ffffff;align=center;fontSize=14;" parent="1" vertex="1">
          <mxGeometry x="-390" y="205" width="160" height="118" as="geometry"/>
        </mxCell>
        <mxCell id="3mEz06m8wjwueaVQV1YL-75" value="GUID" style="shape=partialRectangle;top=0;left=0;right=0;bottom=1;align=left;verticalAlign=middle;fillColor=none;spacingLeft=34;spacingRight=4;overflow=hidden;rotatable=0;points=[[0,0.5],[1,0.5]];portConstraint=eastwest;dropTarget=0;fontStyle=5;fontSize=12;" parent="3mEz06m8wjwueaVQV1YL-74" vertex="1">
          <mxGeometry y="26" width="160" height="30" as="geometry"/>
        </mxCell>
        <mxCell id="3mEz06m8wjwueaVQV1YL-76" value="PK" style="shape=partialRectangle;top=0;left=0;bottom=0;fillColor=none;align=left;verticalAlign=middle;spacingLeft=4;spacingRight=4;overflow=hidden;rotatable=0;points=[];portConstraint=eastwest;part=1;fontSize=12;" parent="3mEz06m8wjwueaVQV1YL-75" vertex="1" connectable="0">
          <mxGeometry width="30" height="30" as="geometry"/>
        </mxCell>
        <mxCell id="3mEz06m8wjwueaVQV1YL-77" value="Type" style="shape=partialRectangle;top=0;left=0;right=0;bottom=0;align=left;verticalAlign=top;fillColor=none;spacingLeft=34;spacingRight=4;overflow=hidden;rotatable=0;points=[[0,0.5],[1,0.5]];portConstraint=eastwest;dropTarget=0;fontSize=12;" parent="3mEz06m8wjwueaVQV1YL-74" vertex="1">
          <mxGeometry y="56" width="160" height="26" as="geometry"/>
        </mxCell>
        <mxCell id="3mEz06m8wjwueaVQV1YL-78" value="" style="shape=partialRectangle;top=0;left=0;bottom=0;fillColor=none;align=left;verticalAlign=top;spacingLeft=4;spacingRight=4;overflow=hidden;rotatable=0;points=[];portConstraint=eastwest;part=1;fontSize=12;" parent="3mEz06m8wjwueaVQV1YL-77" vertex="1" connectable="0">
          <mxGeometry width="30" height="26" as="geometry"/>
        </mxCell>
        <mxCell id="3mEz06m8wjwueaVQV1YL-79" value="Id" style="shape=partialRectangle;top=0;left=0;right=0;bottom=0;align=left;verticalAlign=top;fillColor=none;spacingLeft=34;spacingRight=4;overflow=hidden;rotatable=0;points=[[0,0.5],[1,0.5]];portConstraint=eastwest;dropTarget=0;fontSize=12;" parent="3mEz06m8wjwueaVQV1YL-74" vertex="1">
          <mxGeometry y="82" width="160" height="26" as="geometry"/>
        </mxCell>
        <mxCell id="3mEz06m8wjwueaVQV1YL-80" value="" style="shape=partialRectangle;top=0;left=0;bottom=0;fillColor=none;align=left;verticalAlign=top;spacingLeft=4;spacingRight=4;overflow=hidden;rotatable=0;points=[];portConstraint=eastwest;part=1;fontSize=12;" parent="3mEz06m8wjwueaVQV1YL-79" vertex="1" connectable="0">
          <mxGeometry width="30" height="26" as="geometry"/>
        </mxCell>
        <mxCell id="3mEz06m8wjwueaVQV1YL-83" value="" style="shape=partialRectangle;top=0;left=0;right=0;bottom=0;align=left;verticalAlign=top;fillColor=none;spacingLeft=34;spacingRight=4;overflow=hidden;rotatable=0;points=[[0,0.5],[1,0.5]];portConstraint=eastwest;dropTarget=0;fontSize=12;" parent="3mEz06m8wjwueaVQV1YL-74" vertex="1">
          <mxGeometry y="108" width="160" height="10" as="geometry"/>
        </mxCell>
        <mxCell id="3mEz06m8wjwueaVQV1YL-84" value="" style="shape=partialRectangle;top=0;left=0;bottom=0;fillColor=none;align=left;verticalAlign=top;spacingLeft=4;spacingRight=4;overflow=hidden;rotatable=0;points=[];portConstraint=eastwest;part=1;fontSize=12;" parent="3mEz06m8wjwueaVQV1YL-83" vertex="1" connectable="0">
          <mxGeometry width="30" height="10" as="geometry"/>
        </mxCell>
        <mxCell id="3mEz06m8wjwueaVQV1YL-86" value="Unit_Maintenance" style="swimlane;fontStyle=0;childLayout=stackLayout;horizontal=1;startSize=26;fillColor=#e0e0e0;horizontalStack=0;resizeParent=1;resizeParentMax=0;resizeLast=0;collapsible=1;marginBottom=0;swimlaneFillColor=#ffffff;align=center;fontSize=14;" parent="1" vertex="1">
          <mxGeometry x="-100" y="600" width="160" height="316" as="geometry"/>
        </mxCell>
        <mxCell id="3mEz06m8wjwueaVQV1YL-87" value="GUID" style="shape=partialRectangle;top=0;left=0;right=0;bottom=1;align=left;verticalAlign=middle;fillColor=none;spacingLeft=34;spacingRight=4;overflow=hidden;rotatable=0;points=[[0,0.5],[1,0.5]];portConstraint=eastwest;dropTarget=0;fontStyle=5;fontSize=12;" parent="3mEz06m8wjwueaVQV1YL-86" vertex="1">
          <mxGeometry y="26" width="160" height="30" as="geometry"/>
        </mxCell>
        <mxCell id="3mEz06m8wjwueaVQV1YL-88" value="PK" style="shape=partialRectangle;top=0;left=0;bottom=0;fillColor=none;align=left;verticalAlign=middle;spacingLeft=4;spacingRight=4;overflow=hidden;rotatable=0;points=[];portConstraint=eastwest;part=1;fontSize=12;" parent="3mEz06m8wjwueaVQV1YL-87" vertex="1" connectable="0">
          <mxGeometry width="30" height="30" as="geometry"/>
        </mxCell>
        <mxCell id="3mEz06m8wjwueaVQV1YL-89" value="Maintenance_Type_ID" style="shape=partialRectangle;top=0;left=0;right=0;bottom=0;align=left;verticalAlign=top;fillColor=none;spacingLeft=34;spacingRight=4;overflow=hidden;rotatable=0;points=[[0,0.5],[1,0.5]];portConstraint=eastwest;dropTarget=0;fontSize=12;" parent="3mEz06m8wjwueaVQV1YL-86" vertex="1">
          <mxGeometry y="56" width="160" height="26" as="geometry"/>
        </mxCell>
        <mxCell id="3mEz06m8wjwueaVQV1YL-90" value="FK" style="shape=partialRectangle;top=0;left=0;bottom=0;fillColor=none;align=left;verticalAlign=top;spacingLeft=4;spacingRight=4;overflow=hidden;rotatable=0;points=[];portConstraint=eastwest;part=1;fontSize=12;" parent="3mEz06m8wjwueaVQV1YL-89" vertex="1" connectable="0">
          <mxGeometry width="30" height="26" as="geometry"/>
        </mxCell>
        <mxCell id="3mEz06m8wjwueaVQV1YL-121" value="Unit_GUID" style="shape=partialRectangle;top=0;left=0;right=0;bottom=0;align=left;verticalAlign=top;fillColor=none;spacingLeft=34;spacingRight=4;overflow=hidden;rotatable=0;points=[[0,0.5],[1,0.5]];portConstraint=eastwest;dropTarget=0;fontSize=12;" parent="3mEz06m8wjwueaVQV1YL-86" vertex="1">
          <mxGeometry y="82" width="160" height="26" as="geometry"/>
        </mxCell>
        <mxCell id="3mEz06m8wjwueaVQV1YL-122" value="FK" style="shape=partialRectangle;top=0;left=0;bottom=0;fillColor=none;align=left;verticalAlign=top;spacingLeft=4;spacingRight=4;overflow=hidden;rotatable=0;points=[];portConstraint=eastwest;part=1;fontSize=12;" parent="3mEz06m8wjwueaVQV1YL-121" vertex="1" connectable="0">
          <mxGeometry width="30" height="26" as="geometry"/>
        </mxCell>
        <mxCell id="3mEz06m8wjwueaVQV1YL-91" value="Cost_of_Supplies" style="shape=partialRectangle;top=0;left=0;right=0;bottom=0;align=left;verticalAlign=top;fillColor=none;spacingLeft=34;spacingRight=4;overflow=hidden;rotatable=0;points=[[0,0.5],[1,0.5]];portConstraint=eastwest;dropTarget=0;fontSize=12;" parent="3mEz06m8wjwueaVQV1YL-86" vertex="1">
          <mxGeometry y="108" width="160" height="26" as="geometry"/>
        </mxCell>
        <mxCell id="3mEz06m8wjwueaVQV1YL-92" value="" style="shape=partialRectangle;top=0;left=0;bottom=0;fillColor=none;align=left;verticalAlign=top;spacingLeft=4;spacingRight=4;overflow=hidden;rotatable=0;points=[];portConstraint=eastwest;part=1;fontSize=12;" parent="3mEz06m8wjwueaVQV1YL-91" vertex="1" connectable="0">
          <mxGeometry width="30" height="26" as="geometry"/>
        </mxCell>
        <mxCell id="3mEz06m8wjwueaVQV1YL-93" value="Date_Reported" style="shape=partialRectangle;top=0;left=0;right=0;bottom=0;align=left;verticalAlign=top;fillColor=none;spacingLeft=34;spacingRight=4;overflow=hidden;rotatable=0;points=[[0,0.5],[1,0.5]];portConstraint=eastwest;dropTarget=0;fontSize=12;" parent="3mEz06m8wjwueaVQV1YL-86" vertex="1">
          <mxGeometry y="134" width="160" height="26" as="geometry"/>
        </mxCell>
        <mxCell id="3mEz06m8wjwueaVQV1YL-94" value="" style="shape=partialRectangle;top=0;left=0;bottom=0;fillColor=none;align=left;verticalAlign=top;spacingLeft=4;spacingRight=4;overflow=hidden;rotatable=0;points=[];portConstraint=eastwest;part=1;fontSize=12;" parent="3mEz06m8wjwueaVQV1YL-93" vertex="1" connectable="0">
          <mxGeometry width="30" height="26" as="geometry"/>
        </mxCell>
        <mxCell id="3mEz06m8wjwueaVQV1YL-97" value="Date_Fixed" style="shape=partialRectangle;top=0;left=0;right=0;bottom=0;align=left;verticalAlign=top;fillColor=none;spacingLeft=34;spacingRight=4;overflow=hidden;rotatable=0;points=[[0,0.5],[1,0.5]];portConstraint=eastwest;dropTarget=0;fontSize=12;" parent="3mEz06m8wjwueaVQV1YL-86" vertex="1">
          <mxGeometry y="160" width="160" height="26" as="geometry"/>
        </mxCell>
        <mxCell id="3mEz06m8wjwueaVQV1YL-98" value="" style="shape=partialRectangle;top=0;left=0;bottom=0;fillColor=none;align=left;verticalAlign=top;spacingLeft=4;spacingRight=4;overflow=hidden;rotatable=0;points=[];portConstraint=eastwest;part=1;fontSize=12;" parent="3mEz06m8wjwueaVQV1YL-97" vertex="1" connectable="0">
          <mxGeometry width="30" height="26" as="geometry"/>
        </mxCell>
        <mxCell id="3mEz06m8wjwueaVQV1YL-99" value="Cost_of_Labor" style="shape=partialRectangle;top=0;left=0;right=0;bottom=0;align=left;verticalAlign=top;fillColor=none;spacingLeft=34;spacingRight=4;overflow=hidden;rotatable=0;points=[[0,0.5],[1,0.5]];portConstraint=eastwest;dropTarget=0;fontSize=12;" parent="3mEz06m8wjwueaVQV1YL-86" vertex="1">
          <mxGeometry y="186" width="160" height="26" as="geometry"/>
        </mxCell>
        <mxCell id="3mEz06m8wjwueaVQV1YL-100" value="" style="shape=partialRectangle;top=0;left=0;bottom=0;fillColor=none;align=left;verticalAlign=top;spacingLeft=4;spacingRight=4;overflow=hidden;rotatable=0;points=[];portConstraint=eastwest;part=1;fontSize=12;" parent="3mEz06m8wjwueaVQV1YL-99" vertex="1" connectable="0">
          <mxGeometry width="30" height="26" as="geometry"/>
        </mxCell>
        <mxCell id="3mEz06m8wjwueaVQV1YL-101" value="Start_Time" style="shape=partialRectangle;top=0;left=0;right=0;bottom=0;align=left;verticalAlign=top;fillColor=none;spacingLeft=34;spacingRight=4;overflow=hidden;rotatable=0;points=[[0,0.5],[1,0.5]];portConstraint=eastwest;dropTarget=0;fontSize=12;" parent="3mEz06m8wjwueaVQV1YL-86" vertex="1">
          <mxGeometry y="212" width="160" height="26" as="geometry"/>
        </mxCell>
        <mxCell id="3mEz06m8wjwueaVQV1YL-102" value="" style="shape=partialRectangle;top=0;left=0;bottom=0;fillColor=none;align=left;verticalAlign=top;spacingLeft=4;spacingRight=4;overflow=hidden;rotatable=0;points=[];portConstraint=eastwest;part=1;fontSize=12;" parent="3mEz06m8wjwueaVQV1YL-101" vertex="1" connectable="0">
          <mxGeometry width="30" height="26" as="geometry"/>
        </mxCell>
        <mxCell id="3mEz06m8wjwueaVQV1YL-103" value="End_Time" style="shape=partialRectangle;top=0;left=0;right=0;bottom=0;align=left;verticalAlign=top;fillColor=none;spacingLeft=34;spacingRight=4;overflow=hidden;rotatable=0;points=[[0,0.5],[1,0.5]];portConstraint=eastwest;dropTarget=0;fontSize=12;" parent="3mEz06m8wjwueaVQV1YL-86" vertex="1">
          <mxGeometry y="238" width="160" height="26" as="geometry"/>
        </mxCell>
        <mxCell id="3mEz06m8wjwueaVQV1YL-104" value="" style="shape=partialRectangle;top=0;left=0;bottom=0;fillColor=none;align=left;verticalAlign=top;spacingLeft=4;spacingRight=4;overflow=hidden;rotatable=0;points=[];portConstraint=eastwest;part=1;fontSize=12;" parent="3mEz06m8wjwueaVQV1YL-103" vertex="1" connectable="0">
          <mxGeometry width="30" height="26" as="geometry"/>
        </mxCell>
        <mxCell id="3mEz06m8wjwueaVQV1YL-123" value="Assigned_Workers" style="shape=partialRectangle;top=0;left=0;right=0;bottom=0;align=left;verticalAlign=top;fillColor=none;spacingLeft=34;spacingRight=4;overflow=hidden;rotatable=0;points=[[0,0.5],[1,0.5]];portConstraint=eastwest;dropTarget=0;fontSize=12;" parent="3mEz06m8wjwueaVQV1YL-86" vertex="1">
          <mxGeometry y="264" width="160" height="26" as="geometry"/>
        </mxCell>
        <mxCell id="3mEz06m8wjwueaVQV1YL-124" value="" style="shape=partialRectangle;top=0;left=0;bottom=0;fillColor=none;align=left;verticalAlign=top;spacingLeft=4;spacingRight=4;overflow=hidden;rotatable=0;points=[];portConstraint=eastwest;part=1;fontSize=12;" parent="3mEz06m8wjwueaVQV1YL-123" vertex="1" connectable="0">
          <mxGeometry width="30" height="26" as="geometry"/>
        </mxCell>
        <mxCell id="3mEz06m8wjwueaVQV1YL-105" value="User_GUID" style="shape=partialRectangle;top=0;left=0;right=0;bottom=0;align=left;verticalAlign=top;fillColor=none;spacingLeft=34;spacingRight=4;overflow=hidden;rotatable=0;points=[[0,0.5],[1,0.5]];portConstraint=eastwest;dropTarget=0;fontSize=12;" parent="3mEz06m8wjwueaVQV1YL-86" vertex="1">
          <mxGeometry y="290" width="160" height="26" as="geometry"/>
        </mxCell>
        <mxCell id="3mEz06m8wjwueaVQV1YL-106" value="FK" style="shape=partialRectangle;top=0;left=0;bottom=0;fillColor=none;align=left;verticalAlign=top;spacingLeft=4;spacingRight=4;overflow=hidden;rotatable=0;points=[];portConstraint=eastwest;part=1;fontSize=12;" parent="3mEz06m8wjwueaVQV1YL-105" vertex="1" connectable="0">
          <mxGeometry width="30" height="26" as="geometry"/>
        </mxCell>
        <mxCell id="3mEz06m8wjwueaVQV1YL-149" style="edgeStyle=orthogonalEdgeStyle;rounded=0;orthogonalLoop=1;jettySize=auto;html=1;entryX=0.25;entryY=0;entryDx=0;entryDy=0;startArrow=ERmany;startFill=0;endArrow=ERone;endFill=0;" parent="1" source="3mEz06m8wjwueaVQV1YL-109" target="3mEz06m8wjwueaVQV1YL-125" edge="1">
          <mxGeometry relative="1" as="geometry"/>
        </mxCell>
        <mxCell id="3mEz06m8wjwueaVQV1YL-109" value="Maintenance_Type" style="swimlane;fontStyle=0;childLayout=stackLayout;horizontal=1;startSize=26;fillColor=#e0e0e0;horizontalStack=0;resizeParent=1;resizeParentMax=0;resizeLast=0;collapsible=1;marginBottom=0;swimlaneFillColor=#ffffff;align=center;fontSize=14;" parent="1" vertex="1">
          <mxGeometry x="-390" y="394" width="160" height="108" as="geometry"/>
        </mxCell>
        <mxCell id="3mEz06m8wjwueaVQV1YL-110" value="GUID" style="shape=partialRectangle;top=0;left=0;right=0;bottom=1;align=left;verticalAlign=middle;fillColor=none;spacingLeft=34;spacingRight=4;overflow=hidden;rotatable=0;points=[[0,0.5],[1,0.5]];portConstraint=eastwest;dropTarget=0;fontStyle=5;fontSize=12;" parent="3mEz06m8wjwueaVQV1YL-109" vertex="1">
          <mxGeometry y="26" width="160" height="30" as="geometry"/>
        </mxCell>
        <mxCell id="3mEz06m8wjwueaVQV1YL-111" value="PK" style="shape=partialRectangle;top=0;left=0;bottom=0;fillColor=none;align=left;verticalAlign=middle;spacingLeft=4;spacingRight=4;overflow=hidden;rotatable=0;points=[];portConstraint=eastwest;part=1;fontSize=12;" parent="3mEz06m8wjwueaVQV1YL-110" vertex="1" connectable="0">
          <mxGeometry width="30" height="30" as="geometry"/>
        </mxCell>
        <mxCell id="3mEz06m8wjwueaVQV1YL-112" value="Id" style="shape=partialRectangle;top=0;left=0;right=0;bottom=0;align=left;verticalAlign=top;fillColor=none;spacingLeft=34;spacingRight=4;overflow=hidden;rotatable=0;points=[[0,0.5],[1,0.5]];portConstraint=eastwest;dropTarget=0;fontSize=12;" parent="3mEz06m8wjwueaVQV1YL-109" vertex="1">
          <mxGeometry y="56" width="160" height="26" as="geometry"/>
        </mxCell>
        <mxCell id="3mEz06m8wjwueaVQV1YL-113" value="" style="shape=partialRectangle;top=0;left=0;bottom=0;fillColor=none;align=left;verticalAlign=top;spacingLeft=4;spacingRight=4;overflow=hidden;rotatable=0;points=[];portConstraint=eastwest;part=1;fontSize=12;" parent="3mEz06m8wjwueaVQV1YL-112" vertex="1" connectable="0">
          <mxGeometry width="30" height="26" as="geometry"/>
        </mxCell>
        <mxCell id="3mEz06m8wjwueaVQV1YL-114" value="Type" style="shape=partialRectangle;top=0;left=0;right=0;bottom=0;align=left;verticalAlign=top;fillColor=none;spacingLeft=34;spacingRight=4;overflow=hidden;rotatable=0;points=[[0,0.5],[1,0.5]];portConstraint=eastwest;dropTarget=0;fontSize=12;" parent="3mEz06m8wjwueaVQV1YL-109" vertex="1">
          <mxGeometry y="82" width="160" height="26" as="geometry"/>
        </mxCell>
        <mxCell id="3mEz06m8wjwueaVQV1YL-115" value="" style="shape=partialRectangle;top=0;left=0;bottom=0;fillColor=none;align=left;verticalAlign=top;spacingLeft=4;spacingRight=4;overflow=hidden;rotatable=0;points=[];portConstraint=eastwest;part=1;fontSize=12;" parent="3mEz06m8wjwueaVQV1YL-114" vertex="1" connectable="0">
          <mxGeometry width="30" height="26" as="geometry"/>
        </mxCell>
        <mxCell id="3mEz06m8wjwueaVQV1YL-120" style="edgeStyle=orthogonalEdgeStyle;rounded=0;orthogonalLoop=1;jettySize=auto;html=1;entryX=0.019;entryY=-0.316;entryDx=0;entryDy=0;entryPerimeter=0;startArrow=ERone;startFill=0;endArrow=ERone;endFill=0;exitX=1.008;exitY=0.041;exitDx=0;exitDy=0;exitPerimeter=0;" parent="1" source="3mEz06m8wjwueaVQV1YL-109" target="3mEz06m8wjwueaVQV1YL-87" edge="1">
          <mxGeometry relative="1" as="geometry">
            <mxPoint x="-231" y="615" as="sourcePoint"/>
            <Array as="points">
              <mxPoint x="-170" y="399"/>
              <mxPoint x="-170" y="615"/>
            </Array>
          </mxGeometry>
        </mxCell>
        <mxCell id="3mEz06m8wjwueaVQV1YL-125" value="Scheduled_Maintenance" style="swimlane;fontStyle=0;childLayout=stackLayout;horizontal=1;startSize=26;fillColor=#e0e0e0;horizontalStack=0;resizeParent=1;resizeParentMax=0;resizeLast=0;collapsible=1;marginBottom=0;swimlaneFillColor=#ffffff;align=center;fontSize=14;" parent="1" vertex="1">
          <mxGeometry x="-390" y="600" width="160" height="264" as="geometry"/>
        </mxCell>
        <mxCell id="3mEz06m8wjwueaVQV1YL-126" value="GUID" style="shape=partialRectangle;top=0;left=0;right=0;bottom=1;align=left;verticalAlign=middle;fillColor=none;spacingLeft=34;spacingRight=4;overflow=hidden;rotatable=0;points=[[0,0.5],[1,0.5]];portConstraint=eastwest;dropTarget=0;fontStyle=5;fontSize=12;" parent="3mEz06m8wjwueaVQV1YL-125" vertex="1">
          <mxGeometry y="26" width="160" height="30" as="geometry"/>
        </mxCell>
        <mxCell id="3mEz06m8wjwueaVQV1YL-127" value="PK" style="shape=partialRectangle;top=0;left=0;bottom=0;fillColor=none;align=left;verticalAlign=middle;spacingLeft=4;spacingRight=4;overflow=hidden;rotatable=0;points=[];portConstraint=eastwest;part=1;fontSize=12;" parent="3mEz06m8wjwueaVQV1YL-126" vertex="1" connectable="0">
          <mxGeometry width="30" height="30" as="geometry"/>
        </mxCell>
        <mxCell id="3mEz06m8wjwueaVQV1YL-128" value="HousingUnit_GUID" style="shape=partialRectangle;top=0;left=0;right=0;bottom=0;align=left;verticalAlign=top;fillColor=none;spacingLeft=34;spacingRight=4;overflow=hidden;rotatable=0;points=[[0,0.5],[1,0.5]];portConstraint=eastwest;dropTarget=0;fontSize=12;" parent="3mEz06m8wjwueaVQV1YL-125" vertex="1">
          <mxGeometry y="56" width="160" height="26" as="geometry"/>
        </mxCell>
        <mxCell id="3mEz06m8wjwueaVQV1YL-129" value="FK" style="shape=partialRectangle;top=0;left=0;bottom=0;fillColor=none;align=left;verticalAlign=top;spacingLeft=4;spacingRight=4;overflow=hidden;rotatable=0;points=[];portConstraint=eastwest;part=1;fontSize=12;" parent="3mEz06m8wjwueaVQV1YL-128" vertex="1" connectable="0">
          <mxGeometry width="30" height="26" as="geometry"/>
        </mxCell>
        <mxCell id="3mEz06m8wjwueaVQV1YL-136" value="Type" style="shape=partialRectangle;top=0;left=0;right=0;bottom=0;align=left;verticalAlign=top;fillColor=none;spacingLeft=34;spacingRight=4;overflow=hidden;rotatable=0;points=[[0,0.5],[1,0.5]];portConstraint=eastwest;dropTarget=0;fontSize=12;" parent="3mEz06m8wjwueaVQV1YL-125" vertex="1">
          <mxGeometry y="82" width="160" height="26" as="geometry"/>
        </mxCell>
        <mxCell id="3mEz06m8wjwueaVQV1YL-137" value="FK" style="shape=partialRectangle;top=0;left=0;bottom=0;fillColor=none;align=left;verticalAlign=top;spacingLeft=4;spacingRight=4;overflow=hidden;rotatable=0;points=[];portConstraint=eastwest;part=1;fontSize=12;" parent="3mEz06m8wjwueaVQV1YL-136" vertex="1" connectable="0">
          <mxGeometry width="30" height="26" as="geometry"/>
        </mxCell>
        <mxCell id="3mEz06m8wjwueaVQV1YL-130" value="Date" style="shape=partialRectangle;top=0;left=0;right=0;bottom=0;align=left;verticalAlign=top;fillColor=none;spacingLeft=34;spacingRight=4;overflow=hidden;rotatable=0;points=[[0,0.5],[1,0.5]];portConstraint=eastwest;dropTarget=0;fontSize=12;" parent="3mEz06m8wjwueaVQV1YL-125" vertex="1">
          <mxGeometry y="108" width="160" height="26" as="geometry"/>
        </mxCell>
        <mxCell id="3mEz06m8wjwueaVQV1YL-131" value="" style="shape=partialRectangle;top=0;left=0;bottom=0;fillColor=none;align=left;verticalAlign=top;spacingLeft=4;spacingRight=4;overflow=hidden;rotatable=0;points=[];portConstraint=eastwest;part=1;fontSize=12;" parent="3mEz06m8wjwueaVQV1YL-130" vertex="1" connectable="0">
          <mxGeometry width="30" height="26" as="geometry"/>
        </mxCell>
        <mxCell id="3mEz06m8wjwueaVQV1YL-132" value="Time" style="shape=partialRectangle;top=0;left=0;right=0;bottom=0;align=left;verticalAlign=top;fillColor=none;spacingLeft=34;spacingRight=4;overflow=hidden;rotatable=0;points=[[0,0.5],[1,0.5]];portConstraint=eastwest;dropTarget=0;fontSize=12;" parent="3mEz06m8wjwueaVQV1YL-125" vertex="1">
          <mxGeometry y="134" width="160" height="26" as="geometry"/>
        </mxCell>
        <mxCell id="3mEz06m8wjwueaVQV1YL-133" value="" style="shape=partialRectangle;top=0;left=0;bottom=0;fillColor=none;align=left;verticalAlign=top;spacingLeft=4;spacingRight=4;overflow=hidden;rotatable=0;points=[];portConstraint=eastwest;part=1;fontSize=12;" parent="3mEz06m8wjwueaVQV1YL-132" vertex="1" connectable="0">
          <mxGeometry width="30" height="26" as="geometry"/>
        </mxCell>
        <mxCell id="3mEz06m8wjwueaVQV1YL-138" value="Assigned_Workers" style="shape=partialRectangle;top=0;left=0;right=0;bottom=0;align=left;verticalAlign=top;fillColor=none;spacingLeft=34;spacingRight=4;overflow=hidden;rotatable=0;points=[[0,0.5],[1,0.5]];portConstraint=eastwest;dropTarget=0;fontSize=12;" parent="3mEz06m8wjwueaVQV1YL-125" vertex="1">
          <mxGeometry y="160" width="160" height="26" as="geometry"/>
        </mxCell>
        <mxCell id="3mEz06m8wjwueaVQV1YL-139" value="" style="shape=partialRectangle;top=0;left=0;bottom=0;fillColor=none;align=left;verticalAlign=top;spacingLeft=4;spacingRight=4;overflow=hidden;rotatable=0;points=[];portConstraint=eastwest;part=1;fontSize=12;" parent="3mEz06m8wjwueaVQV1YL-138" vertex="1" connectable="0">
          <mxGeometry width="30" height="26" as="geometry"/>
        </mxCell>
        <mxCell id="3mEz06m8wjwueaVQV1YL-140" value="Completed" style="shape=partialRectangle;top=0;left=0;right=0;bottom=0;align=left;verticalAlign=top;fillColor=none;spacingLeft=34;spacingRight=4;overflow=hidden;rotatable=0;points=[[0,0.5],[1,0.5]];portConstraint=eastwest;dropTarget=0;fontSize=12;" parent="3mEz06m8wjwueaVQV1YL-125" vertex="1">
          <mxGeometry y="186" width="160" height="26" as="geometry"/>
        </mxCell>
        <mxCell id="3mEz06m8wjwueaVQV1YL-141" value="" style="shape=partialRectangle;top=0;left=0;bottom=0;fillColor=none;align=left;verticalAlign=top;spacingLeft=4;spacingRight=4;overflow=hidden;rotatable=0;points=[];portConstraint=eastwest;part=1;fontSize=12;" parent="3mEz06m8wjwueaVQV1YL-140" vertex="1" connectable="0">
          <mxGeometry width="30" height="26" as="geometry"/>
        </mxCell>
        <mxCell id="3mEz06m8wjwueaVQV1YL-142" value="Date_Completed" style="shape=partialRectangle;top=0;left=0;right=0;bottom=0;align=left;verticalAlign=top;fillColor=none;spacingLeft=34;spacingRight=4;overflow=hidden;rotatable=0;points=[[0,0.5],[1,0.5]];portConstraint=eastwest;dropTarget=0;fontSize=12;" parent="3mEz06m8wjwueaVQV1YL-125" vertex="1">
          <mxGeometry y="212" width="160" height="26" as="geometry"/>
        </mxCell>
        <mxCell id="3mEz06m8wjwueaVQV1YL-143" value="" style="shape=partialRectangle;top=0;left=0;bottom=0;fillColor=none;align=left;verticalAlign=top;spacingLeft=4;spacingRight=4;overflow=hidden;rotatable=0;points=[];portConstraint=eastwest;part=1;fontSize=12;" parent="3mEz06m8wjwueaVQV1YL-142" vertex="1" connectable="0">
          <mxGeometry width="30" height="26" as="geometry"/>
        </mxCell>
        <mxCell id="3mEz06m8wjwueaVQV1YL-145" value="Description" style="shape=partialRectangle;top=0;left=0;right=0;bottom=0;align=left;verticalAlign=top;fillColor=none;spacingLeft=34;spacingRight=4;overflow=hidden;rotatable=0;points=[[0,0.5],[1,0.5]];portConstraint=eastwest;dropTarget=0;fontSize=12;" parent="3mEz06m8wjwueaVQV1YL-125" vertex="1">
          <mxGeometry y="238" width="160" height="26" as="geometry"/>
        </mxCell>
        <mxCell id="3mEz06m8wjwueaVQV1YL-146" value="" style="shape=partialRectangle;top=0;left=0;bottom=0;fillColor=none;align=left;verticalAlign=top;spacingLeft=4;spacingRight=4;overflow=hidden;rotatable=0;points=[];portConstraint=eastwest;part=1;fontSize=12;" parent="3mEz06m8wjwueaVQV1YL-145" vertex="1" connectable="0">
          <mxGeometry width="30" height="26" as="geometry"/>
        </mxCell>
        <mxCell id="3mEz06m8wjwueaVQV1YL-150" value="HousingPhotos" style="swimlane;fontStyle=0;childLayout=stackLayout;horizontal=1;startSize=26;fillColor=#e0e0e0;horizontalStack=0;resizeParent=1;resizeParentMax=0;resizeLast=0;collapsible=1;marginBottom=0;swimlaneFillColor=#ffffff;align=center;fontSize=14;" parent="1" vertex="1">
          <mxGeometry x="-660" y="120" width="160" height="144" as="geometry"/>
        </mxCell>
        <mxCell id="3mEz06m8wjwueaVQV1YL-151" value="GUID" style="shape=partialRectangle;top=0;left=0;right=0;bottom=1;align=left;verticalAlign=middle;fillColor=none;spacingLeft=34;spacingRight=4;overflow=hidden;rotatable=0;points=[[0,0.5],[1,0.5]];portConstraint=eastwest;dropTarget=0;fontStyle=5;fontSize=12;" parent="3mEz06m8wjwueaVQV1YL-150" vertex="1">
          <mxGeometry y="26" width="160" height="30" as="geometry"/>
        </mxCell>
        <mxCell id="3mEz06m8wjwueaVQV1YL-152" value="PK" style="shape=partialRectangle;top=0;left=0;bottom=0;fillColor=none;align=left;verticalAlign=middle;spacingLeft=4;spacingRight=4;overflow=hidden;rotatable=0;points=[];portConstraint=eastwest;part=1;fontSize=12;" parent="3mEz06m8wjwueaVQV1YL-151" vertex="1" connectable="0">
          <mxGeometry width="30" height="30" as="geometry"/>
        </mxCell>
        <mxCell id="3mEz06m8wjwueaVQV1YL-153" value="HousingUnit_GUID" style="shape=partialRectangle;top=0;left=0;right=0;bottom=0;align=left;verticalAlign=top;fillColor=none;spacingLeft=34;spacingRight=4;overflow=hidden;rotatable=0;points=[[0,0.5],[1,0.5]];portConstraint=eastwest;dropTarget=0;fontSize=12;" parent="3mEz06m8wjwueaVQV1YL-150" vertex="1">
          <mxGeometry y="56" width="160" height="26" as="geometry"/>
        </mxCell>
        <mxCell id="3mEz06m8wjwueaVQV1YL-154" value="FK" style="shape=partialRectangle;top=0;left=0;bottom=0;fillColor=none;align=left;verticalAlign=top;spacingLeft=4;spacingRight=4;overflow=hidden;rotatable=0;points=[];portConstraint=eastwest;part=1;fontSize=12;" parent="3mEz06m8wjwueaVQV1YL-153" vertex="1" connectable="0">
          <mxGeometry width="30" height="26" as="geometry"/>
        </mxCell>
        <mxCell id="3mEz06m8wjwueaVQV1YL-155" value="Image_Blob" style="shape=partialRectangle;top=0;left=0;right=0;bottom=0;align=left;verticalAlign=top;fillColor=none;spacingLeft=34;spacingRight=4;overflow=hidden;rotatable=0;points=[[0,0.5],[1,0.5]];portConstraint=eastwest;dropTarget=0;fontSize=12;" parent="3mEz06m8wjwueaVQV1YL-150" vertex="1">
          <mxGeometry y="82" width="160" height="26" as="geometry"/>
        </mxCell>
        <mxCell id="3mEz06m8wjwueaVQV1YL-156" value="" style="shape=partialRectangle;top=0;left=0;bottom=0;fillColor=none;align=left;verticalAlign=top;spacingLeft=4;spacingRight=4;overflow=hidden;rotatable=0;points=[];portConstraint=eastwest;part=1;fontSize=12;" parent="3mEz06m8wjwueaVQV1YL-155" vertex="1" connectable="0">
          <mxGeometry width="30" height="26" as="geometry"/>
        </mxCell>
        <mxCell id="3mEz06m8wjwueaVQV1YL-157" value="Description" style="shape=partialRectangle;top=0;left=0;right=0;bottom=0;align=left;verticalAlign=top;fillColor=none;spacingLeft=34;spacingRight=4;overflow=hidden;rotatable=0;points=[[0,0.5],[1,0.5]];portConstraint=eastwest;dropTarget=0;fontSize=12;" parent="3mEz06m8wjwueaVQV1YL-150" vertex="1">
          <mxGeometry y="108" width="160" height="26" as="geometry"/>
        </mxCell>
        <mxCell id="3mEz06m8wjwueaVQV1YL-158" value="" style="shape=partialRectangle;top=0;left=0;bottom=0;fillColor=none;align=left;verticalAlign=top;spacingLeft=4;spacingRight=4;overflow=hidden;rotatable=0;points=[];portConstraint=eastwest;part=1;fontSize=12;" parent="3mEz06m8wjwueaVQV1YL-157" vertex="1" connectable="0">
          <mxGeometry width="30" height="26" as="geometry"/>
        </mxCell>
        <mxCell id="3mEz06m8wjwueaVQV1YL-159" value="" style="shape=partialRectangle;top=0;left=0;right=0;bottom=0;align=left;verticalAlign=top;fillColor=none;spacingLeft=34;spacingRight=4;overflow=hidden;rotatable=0;points=[[0,0.5],[1,0.5]];portConstraint=eastwest;dropTarget=0;fontSize=12;" parent="3mEz06m8wjwueaVQV1YL-150" vertex="1">
          <mxGeometry y="134" width="160" height="10" as="geometry"/>
        </mxCell>
        <mxCell id="3mEz06m8wjwueaVQV1YL-160" value="" style="shape=partialRectangle;top=0;left=0;bottom=0;fillColor=none;align=left;verticalAlign=top;spacingLeft=4;spacingRight=4;overflow=hidden;rotatable=0;points=[];portConstraint=eastwest;part=1;fontSize=12;" parent="3mEz06m8wjwueaVQV1YL-159" vertex="1" connectable="0">
          <mxGeometry width="30" height="10" as="geometry"/>
        </mxCell>
      </root>
    </mxGraphModel>
  </diagram>
</mxfile>
